<svg width="37" height="51" viewBox="0 0 37 51" fill="none" xmlns="http://www.w3.org/2000/svg">
    <path fill-rule="evenodd" clip-rule="evenodd"
          d="M20.9645 24.1429C21.2158 24.5 21.366 24.8819 21.4428 25.309L28.3465 23.0024C29.6993 22.5504 29.9977 22.9492 31.5121 24.0755C33.1599 25.3009 34.8218 26.2656 35.6356 27.0013C36.1207 27.4392 36.3113 28.2604 36.4029 29.2385C36.5915 31.2562 36.6017 33.2859 36.3746 35.3837C36.1011 37.918 36.0088 38.4516 35.9691 31.7951C35.9603 30.346 35.8714 28.866 35.4645 28.0064C35.1351 27.3105 31.7169 25.3023 30.9947 24.7586C29.6764 23.7657 29.6299 23.5204 28.4921 23.926L21.8362 26.2939C21.7089 26.3391 21.5971 26.3822 21.498 26.4192C21.4879 26.6287 21.4698 26.8477 21.4435 27.0781L21.4576 27.0835L29.5093 30.2436C31.0042 30.8304 31.0904 31.308 31.9109 33.3425C32.8035 35.5555 33.8484 37.5435 34.2202 38.7541C34.4419 39.4756 34.1812 40.3426 33.7426 41.285C32.8392 43.2286 31.76 45.0623 30.4235 46.7983C28.8087 48.8954 28.4355 49.3138 31.9655 43.2946C32.7341 41.9843 33.4435 40.5918 33.5217 39.5436C33.585 38.6955 31.4474 34.5854 31.0601 33.6086C30.3527 31.8274 30.4403 31.5748 29.1536 31.1733L21.6267 28.8222C21.4664 28.7723 21.3256 28.7326 21.2037 28.6962C21.1653 28.9064 21.1235 29.0991 21.0784 29.2756L25.6606 32.3091C26.5849 32.9208 27.0302 33.9246 27.3765 35.9462C27.753 38.1457 28.2435 40.1398 28.3769 41.3342C28.4564 42.0463 27.7517 42.8648 27.4048 43.7426C26.6893 45.5527 25.8735 47.245 24.9055 48.824C23.736 50.7319 23.4712 51.1084 26.1416 45.5541C26.723 44.3448 27.2741 43.0521 27.4061 42.0463C27.5132 41.2325 26.5155 37.1117 26.3532 36.1423C26.0568 34.3719 26.1309 34.1347 25.3649 33.6544L20.8843 30.8439C20.7085 30.7334 20.5711 30.662 20.4734 30.5879C20.212 30.8735 19.8914 31.0022 19.4973 31.0359C19.7701 31.7944 20.0241 32.5098 20.1413 33.1C20.3582 34.194 19.6818 35.476 18.701 33.9468C17.5814 32.2027 18.4039 32.6594 18.7535 33.2509C19.0937 33.8255 19.789 33.868 19.4124 32.8009L18.7832 31.0177C18.3103 30.9678 17.7579 30.8594 17.1098 30.7523C16.7858 30.699 16.5015 30.6404 16.2536 30.5731L15.2276 32.2572C14.6388 33.2233 15.3205 33.5412 15.8871 33.1869C16.5897 32.7477 17.2304 32.5253 16.5837 33.1795C15.7166 34.1853 15.0147 34.1893 14.5876 33.932C13.701 33.3977 14.6145 31.9622 15.6163 30.3386C15.3353 30.1972 15.1339 30.022 14.9978 29.7963L12.2877 32.5173C11.7919 33.0151 11.8397 33.261 11.6477 35.0947C11.5426 36.0998 10.8966 40.3688 10.9659 41.2123C11.0515 42.2544 11.4085 43.5937 11.7845 44.8467C13.5131 50.6018 13.3413 50.2111 12.5848 48.2346C11.9583 46.5982 10.9558 44.8454 10.4924 42.9699C10.2674 42.0604 10.1185 41.2123 10.1697 40.4746C10.2559 39.2371 10.5732 37.1716 10.8171 34.8919C11.0414 32.7968 10.9875 32.1696 11.6208 31.5283L14.7722 28.3358C14.7883 28.0818 14.8186 27.7996 14.8618 27.4863L14.8247 27.4984L7.40629 29.993C6.13778 30.4195 6.23815 30.6734 5.6204 32.4896C5.28155 33.4846 3.34947 37.6816 3.45591 38.5398C3.5866 39.6009 4.36806 41.0014 5.20408 42.3178C9.04398 48.3646 8.64921 47.9462 6.92529 45.8451C5.49847 44.1057 4.32562 42.2639 3.32185 40.3075C2.83547 39.359 2.53029 38.4839 2.71555 37.7496C3.02611 36.5182 3.97194 34.4884 4.75407 32.2323C5.4722 30.1588 5.50049 29.5868 7.00209 29.0566L15.0666 26.2084C15.1204 25.9369 15.1844 25.6829 15.2559 25.4431L15.2006 25.4262L8.86276 23.4975C7.77883 23.1681 7.71146 23.4612 6.32843 24.791C5.57055 25.5199 2.03313 28.3055 1.64846 29.1624C1.17286 30.2207 0.955935 31.9655 0.819855 33.6638C0.197387 41.4642 0.153598 40.8512 0.106442 37.918C0.067369 35.4895 0.255322 33.1114 0.617755 30.7246C0.793582 29.5673 1.05294 28.5817 1.56897 28.0071C2.43396 27.043 4.15248 25.7018 5.88044 24.0574C7.46827 22.5456 7.79702 22.0161 9.08776 22.3981L15.6661 24.3477C15.8143 24.0183 15.9672 23.7266 16.1094 23.4645L8.90992 21.3021C7.45008 20.8635 7.52216 19.9756 6.87073 17.4797C6.16136 14.7641 5.30311 12.3207 5.02151 10.838C4.85377 9.95414 4.98244 9.29867 5.42369 8.15748C6.33382 5.80301 11.3964 2.58895 13.3521 1.09408C15.5617 -0.594801 15.9416 -0.518676 10.5853 4.36945C9.62737 5.24387 8.0072 6.31163 7.03712 7.48448C6.13374 8.57717 6.16473 9.50346 6.46114 10.8158C6.95696 13.0139 7.91356 16.3156 8.13183 17.1691C8.69232 19.3545 8.56702 19.273 9.752 19.7001L15.6628 21.8302C15.5462 20.6904 16.0899 21.7669 14.0803 20.1656C11.0461 17.7464 13.2578 13.819 14.1167 10.9094C15.1474 7.41577 16.5325 4.0508 17.9849 4.49677C19.6886 5.01954 25.922 10.6473 25.6121 15.6136C25.4424 18.3386 22.9424 20.6331 20.978 21.1047C19.822 21.3822 20.6614 21.5095 20.3643 22.3328L26.7863 21.1027C28.0272 20.8648 27.9221 20.2154 28.5635 18.0705C28.9151 16.8956 30.8539 11.9475 30.7967 10.9269C30.7259 9.66581 30.0819 7.98906 29.3853 6.41201C26.1827 -0.833279 26.9952 -0.33005 28.4611 2.19418C29.6743 4.28389 30.6525 6.4915 31.4724 8.83047C31.8698 9.96492 32.1063 11.0091 31.9055 11.8775C31.5687 13.3339 30.6202 15.7268 29.8104 18.3911C29.066 20.8399 29.095 21.6766 27.6318 22.1212L20.9665 24.1436L20.9645 24.1429ZM17.9829 6.3918C18.507 6.3918 18.9314 6.81621 18.9314 7.34032C18.9314 7.86376 18.507 8.28884 17.9829 8.28884C17.4587 8.28884 17.0343 7.86443 17.0343 7.34032C17.0343 6.81688 17.4587 6.3918 17.9829 6.3918Z"
          fill="black" stroke="black" stroke-width="0.200079" stroke-miterlimit="22.9256"/>
</svg>
