<svg width="192" height="192" viewBox="0 0 192 192" fill="none" xmlns="http://www.w3.org/2000/svg">
    <rect width="192" height="192" fill="#6BFD53"/>
    <path d="M64.3594 110.859C64.3594 108.453 63.5 106.578 61.7812 105.234C60.0938 103.891 57.1094 102.5 52.8281 101.062C48.5469 99.625 45.0469 98.2344 42.3281 96.8906C33.4844 92.5469 29.0625 86.5781 29.0625 78.9844C29.0625 75.2031 30.1562 71.875 32.3438 69C34.5625 66.0938 37.6875 63.8438 41.7188 62.25C45.75 60.625 50.2812 59.8125 55.3125 59.8125C60.2188 59.8125 64.6094 60.6875 68.4844 62.4375C72.3906 64.1875 75.4219 66.6875 77.5781 69.9375C79.7344 73.1562 80.8125 76.8438 80.8125 81H64.4062C64.4062 78.2188 63.5469 76.0625 61.8281 74.5312C60.1406 73 57.8438 72.2344 54.9375 72.2344C52 72.2344 49.6719 72.8906 47.9531 74.2031C46.2656 75.4844 45.4219 77.125 45.4219 79.125C45.4219 80.875 46.3594 82.4688 48.2344 83.9062C50.1094 85.3125 53.4062 86.7812 58.125 88.3125C62.8438 89.8125 66.7188 91.4375 69.75 93.1875C77.125 97.4375 80.8125 103.297 80.8125 110.766C80.8125 116.734 78.5625 121.422 74.0625 124.828C69.5625 128.234 63.3906 129.938 55.5469 129.938C50.0156 129.938 45 128.953 40.5 126.984C36.0312 124.984 32.6562 122.266 30.375 118.828C28.125 115.359 27 111.375 27 106.875H43.5C43.5 110.531 44.4375 113.234 46.3125 114.984C48.2188 116.703 51.2969 117.562 55.5469 117.562C58.2656 117.562 60.4062 116.984 61.9688 115.828C63.5625 114.641 64.3594 112.984 64.3594 110.859Z"
          fill="#1BB002"/>
    <path d="M110.859 60.75L126.094 108.234L141.281 60.75H162.938V129H146.438V113.062L148.031 80.4375L131.531 129H120.656L104.109 80.3906L105.703 113.062V129H89.25V60.75H110.859Z"
          fill="#1BB002"/>
</svg>
